<svg width="147" height="40" viewBox="0 0 147 40" fill="none" xmlns="http://www.w3.org/2000/svg">
<g filter="url(#filter0_d)">
<path d="M9.008 0H26.992C30.8625 0 34 3.1375 34 7.008V24.992C34 28.8625 30.8625 32 26.992 32H9.008C5.1375 32 2 28.8625 2 24.992V7.008C2 3.1375 5.1375 0 9.008 0Z" fill="url(#paint0_linear)"/>
<path d="M12.2553 23.2262L12.2583 23.2272L11.1642 25.1222C10.7648 25.814 9.88031 26.051 9.18856 25.6516C8.49693 25.2522 8.25981 24.3677 8.65918 23.676L9.46518 22.28L9.54256 22.146C9.68068 21.9475 10.0216 21.6047 10.7034 21.6692C10.7034 21.6692 12.3081 21.8433 12.4242 22.6773C12.4242 22.6773 12.4399 22.9517 12.2553 23.2262ZM27.7732 18.3862H24.3614C24.1291 18.3706 24.0277 18.2876 23.9877 18.2393L23.9852 18.235L20.3331 11.9092L20.3283 11.9123L20.1093 11.5983C19.7503 11.0493 19.1803 12.4533 19.1803 12.4533C18.4997 14.0178 19.2769 15.7965 19.5478 16.3341L24.6206 25.1203C25.0198 25.812 25.9043 26.0491 26.5962 25.6496C27.2878 25.2502 27.5249 24.3657 27.1254 23.674L25.8571 21.477C25.8324 21.4237 25.7897 21.2792 26.0498 21.2786H27.7732C28.5719 21.2786 29.2194 20.6311 29.2194 19.8323C29.2194 19.0336 28.5719 18.3861 27.7732 18.3861V18.3862ZM21.1464 20.3522C21.1464 20.3522 21.3286 21.2786 20.6239 21.2786H8.01156C7.21281 21.2786 6.56531 20.6311 6.56531 19.8323C6.56531 19.0336 7.21281 18.3861 8.01156 18.3861H11.2541C11.7776 18.3558 11.9016 18.0536 11.9016 18.0536L11.9046 18.0551L16.1371 10.7241L16.1358 10.7238C16.2129 10.5822 16.1487 10.4483 16.1376 10.4272L14.7397 8.00609C14.3403 7.31446 14.5773 6.42984 15.2691 6.03059C15.9608 5.63121 16.8453 5.86809 17.2447 6.55984L17.8929 7.68271L18.5401 6.56184C18.9394 5.87021 19.8239 5.63309 20.5157 6.03259C21.2074 6.43196 21.4444 7.31634 21.0451 8.00809L15.1553 18.2093C15.1296 18.2715 15.1217 18.369 15.3133 18.3861H18.8338L18.8346 18.4205C18.8346 18.4205 20.8693 18.4521 21.1464 20.3522Z" fill="white"/>
<path d="M56.1943 19.0205H51.2373L50.2002 22H47.8887L52.7227 9.20312H54.7178L59.5605 22H57.2402L56.1943 19.0205ZM51.8613 17.2275H55.5703L53.7158 11.9189L51.8613 17.2275ZM68.7188 17.3418C68.7188 18.8125 68.3848 19.9873 67.7168 20.8662C67.0488 21.7393 66.1523 22.1758 65.0273 22.1758C63.9844 22.1758 63.1494 21.833 62.5225 21.1475V25.6562H60.3867V12.4902H62.3555L62.4434 13.457C63.0703 12.6953 63.9229 12.3145 65.001 12.3145C66.1611 12.3145 67.0693 12.748 67.7256 13.6152C68.3877 14.4766 68.7188 15.6748 68.7188 17.21V17.3418ZM66.5918 17.1572C66.5918 16.208 66.4014 15.4551 66.0205 14.8984C65.6455 14.3418 65.1064 14.0635 64.4033 14.0635C63.5303 14.0635 62.9033 14.4238 62.5225 15.1445V19.3633C62.9092 20.1016 63.542 20.4707 64.4209 20.4707C65.1006 20.4707 65.6309 20.1982 66.0117 19.6533C66.3984 19.1025 66.5918 18.2705 66.5918 17.1572ZM78.8613 17.3418C78.8613 18.8125 78.5273 19.9873 77.8594 20.8662C77.1914 21.7393 76.2949 22.1758 75.1699 22.1758C74.127 22.1758 73.292 21.833 72.665 21.1475V25.6562H70.5293V12.4902H72.498L72.5859 13.457C73.2129 12.6953 74.0654 12.3145 75.1436 12.3145C76.3037 12.3145 77.2119 12.748 77.8682 13.6152C78.5303 14.4766 78.8613 15.6748 78.8613 17.21V17.3418ZM76.7344 17.1572C76.7344 16.208 76.5439 15.4551 76.1631 14.8984C75.7881 14.3418 75.249 14.0635 74.5459 14.0635C73.6729 14.0635 73.0459 14.4238 72.665 15.1445V19.3633C73.0518 20.1016 73.6846 20.4707 74.5635 20.4707C75.2432 20.4707 75.7734 20.1982 76.1543 19.6533C76.541 19.1025 76.7344 18.2705 76.7344 17.1572ZM82.9482 22H80.8125V8.5H82.9482V22ZM89.4697 22.1758C88.1162 22.1758 87.0176 21.751 86.1738 20.9014C85.3359 20.0459 84.917 18.9092 84.917 17.4912V17.2275C84.917 16.2783 85.0986 15.4316 85.4619 14.6875C85.8311 13.9375 86.3467 13.3545 87.0088 12.9385C87.6709 12.5225 88.4092 12.3145 89.2236 12.3145C90.5186 12.3145 91.5176 12.7275 92.2207 13.5537C92.9297 14.3799 93.2842 15.5488 93.2842 17.0605V17.9219H87.0703C87.1348 18.707 87.3955 19.3281 87.8525 19.7852C88.3154 20.2422 88.8955 20.4707 89.5928 20.4707C90.5713 20.4707 91.3682 20.0752 91.9834 19.2842L93.1348 20.3828C92.7539 20.9512 92.2441 21.3936 91.6055 21.71C90.9727 22.0205 90.2607 22.1758 89.4697 22.1758ZM89.2148 14.0283C88.6289 14.0283 88.1543 14.2334 87.791 14.6436C87.4336 15.0537 87.2051 15.625 87.1055 16.3574H91.1748V16.1992C91.1279 15.4844 90.9375 14.9453 90.6035 14.582C90.2695 14.2129 89.8066 14.0283 89.2148 14.0283ZM106.327 18.7041C106.327 18.1416 106.128 17.708 105.729 17.4033C105.337 17.0986 104.625 16.791 103.594 16.4805C102.562 16.1699 101.742 15.8242 101.133 15.4434C99.9668 14.7109 99.3838 13.7559 99.3838 12.5781C99.3838 11.5469 99.8027 10.6973 100.641 10.0293C101.484 9.36133 102.577 9.02734 103.919 9.02734C104.81 9.02734 105.604 9.19141 106.301 9.51953C106.998 9.84766 107.546 10.3164 107.944 10.9258C108.343 11.5293 108.542 12.2002 108.542 12.9385H106.327C106.327 12.2705 106.116 11.749 105.694 11.374C105.278 10.9932 104.681 10.8027 103.901 10.8027C103.175 10.8027 102.609 10.958 102.205 11.2686C101.807 11.5791 101.607 12.0127 101.607 12.5693C101.607 13.0381 101.824 13.4307 102.258 13.7471C102.691 14.0576 103.406 14.3623 104.402 14.6611C105.398 14.9541 106.198 15.291 106.802 15.6719C107.405 16.0469 107.848 16.4805 108.129 16.9727C108.41 17.459 108.551 18.0303 108.551 18.6865C108.551 19.7529 108.141 20.6025 107.32 21.2354C106.506 21.8623 105.398 22.1758 103.998 22.1758C103.072 22.1758 102.22 22.0059 101.44 21.666C100.667 21.3203 100.063 20.8457 99.6299 20.2422C99.2021 19.6387 98.9883 18.9355 98.9883 18.1328H101.212C101.212 18.8594 101.452 19.4219 101.933 19.8203C102.413 20.2188 103.102 20.418 103.998 20.418C104.771 20.418 105.352 20.2627 105.738 19.9521C106.131 19.6357 106.327 19.2197 106.327 18.7041ZM112.972 10.1787V12.4902H114.65V14.0723H112.972V19.3809C112.972 19.7441 113.042 20.0078 113.183 20.1719C113.329 20.3301 113.587 20.4092 113.956 20.4092C114.202 20.4092 114.451 20.3799 114.703 20.3213V21.9736C114.217 22.1084 113.748 22.1758 113.297 22.1758C111.656 22.1758 110.836 21.2705 110.836 19.46V14.0723H109.271V12.4902H110.836V10.1787H112.972ZM115.626 17.1572C115.626 16.2256 115.811 15.3877 116.18 14.6436C116.549 13.8936 117.067 13.3193 117.735 12.9209C118.403 12.5166 119.171 12.3145 120.038 12.3145C121.321 12.3145 122.361 12.7275 123.158 13.5537C123.961 14.3799 124.395 15.4756 124.459 16.8408L124.468 17.3418C124.468 18.2793 124.286 19.1172 123.923 19.8555C123.565 20.5938 123.05 21.165 122.376 21.5693C121.708 21.9736 120.935 22.1758 120.056 22.1758C118.714 22.1758 117.639 21.7305 116.83 20.8398C116.027 19.9434 115.626 18.751 115.626 17.2627V17.1572ZM117.762 17.3418C117.762 18.3203 117.964 19.0879 118.368 19.6445C118.772 20.1953 119.335 20.4707 120.056 20.4707C120.776 20.4707 121.336 20.1895 121.734 19.627C122.139 19.0645 122.341 18.2412 122.341 17.1572C122.341 16.1963 122.133 15.4346 121.717 14.8721C121.307 14.3096 120.747 14.0283 120.038 14.0283C119.341 14.0283 118.787 14.3066 118.377 14.8633C117.967 15.4141 117.762 16.2402 117.762 17.3418ZM131.253 14.4414C130.972 14.3945 130.682 14.3711 130.383 14.3711C129.404 14.3711 128.745 14.7461 128.405 15.4961V22H126.27V12.4902H128.309L128.361 13.5537C128.877 12.7275 129.592 12.3145 130.506 12.3145C130.811 12.3145 131.062 12.3555 131.262 12.4375L131.253 14.4414ZM136.614 22.1758C135.261 22.1758 134.162 21.751 133.318 20.9014C132.48 20.0459 132.062 18.9092 132.062 17.4912V17.2275C132.062 16.2783 132.243 15.4316 132.606 14.6875C132.976 13.9375 133.491 13.3545 134.153 12.9385C134.815 12.5225 135.554 12.3145 136.368 12.3145C137.663 12.3145 138.662 12.7275 139.365 13.5537C140.074 14.3799 140.429 15.5488 140.429 17.0605V17.9219H134.215C134.279 18.707 134.54 19.3281 134.997 19.7852C135.46 20.2422 136.04 20.4707 136.737 20.4707C137.716 20.4707 138.513 20.0752 139.128 19.2842L140.279 20.3828C139.898 20.9512 139.389 21.3936 138.75 21.71C138.117 22.0205 137.405 22.1758 136.614 22.1758ZM136.359 14.0283C135.773 14.0283 135.299 14.2334 134.936 14.6436C134.578 15.0537 134.35 15.625 134.25 16.3574H138.319V16.1992C138.272 15.4844 138.082 14.9453 137.748 14.582C137.414 14.2129 136.951 14.0283 136.359 14.0283Z" fill="#6E6F74"/>
</g>
<defs>
<filter id="filter0_d" x="0" y="0" width="147" height="40" filterUnits="userSpaceOnUse" color-interpolation-filters="sRGB">
<feFlood flood-opacity="0" result="BackgroundImageFix"/>
<feColorMatrix in="SourceAlpha" type="matrix" values="0 0 0 0 0 0 0 0 0 0 0 0 0 0 0 0 0 0 127 0"/>
<feOffset dx="2" dy="4"/>
<feGaussianBlur stdDeviation="2"/>
<feColorMatrix type="matrix" values="0 0 0 0 0 0 0 0 0 0 0 0 0 0 0 0 0 0 0.12 0"/>
<feBlend mode="normal" in2="BackgroundImageFix" result="effect1_dropShadow"/>
<feBlend mode="normal" in="SourceGraphic" in2="effect1_dropShadow" result="shape"/>
</filter>
<linearGradient id="paint0_linear" x1="18" y1="0" x2="18" y2="32" gradientUnits="userSpaceOnUse">
<stop stop-color="#17C9FB"/>
<stop offset="1" stop-color="#1A74E8"/>
</linearGradient>
</defs>
</svg>
