<svg width="173" height="66" viewBox="0 0 173 66" fill="none" xmlns="http://www.w3.org/2000/svg">
<g filter="url(#filter0_d)">
<path d="M37.0668 33.929C40.8603 31.8435 43.7364 30.2546 43.9843 30.1312C44.777 29.7089 45.5961 28.5915 43.9843 27.7237C43.4639 27.4508 40.6618 25.9111 37.0668 23.9259L32.0834 28.9644L37.0665 33.929H37.0668Z" fill="#FFD900"/>
<path d="M32.0833 28.9645L16.2148 44.9756C16.5871 45.025 17.0076 44.9261 17.5036 44.6532C18.5445 44.083 29.5783 38.0503 37.067 33.9301L32.0833 28.9645Z" fill="#F43249"/>
<path d="M32.0833 28.9645L37.0665 23.9504C37.0665 23.9504 18.6197 13.872 17.5033 13.2773C17.0834 13.0273 16.612 12.9534 16.1904 13.0273L32.0833 28.9642V28.9645Z" fill="#00EE76"/>
<path d="M32.0834 28.9645L16.1902 13.0276C15.5451 13.1768 15 13.7473 15 14.9136V43.0888C15 44.1569 15.4219 44.9261 16.2146 45L32.0831 28.9642L32.0834 28.9645Z" fill="#00D3FF"/>
<path d="M83.8311 25.7863C80.9799 25.7863 78.6242 27.9952 78.6242 31.0238C78.6242 34.0276 80.9552 36.2612 83.8313 36.2612C86.7072 36.2612 89.0379 34.0524 89.0379 31.0238C89.0379 27.9952 86.7072 25.7863 83.8311 25.7863ZM83.8311 34.1771C82.2686 34.1771 80.9058 32.8611 80.9058 31.0004C80.9058 29.1139 82.2697 27.8237 83.8311 27.8237C85.3924 27.8237 86.7563 29.1139 86.7563 31.0004C86.7563 32.8611 85.3924 34.1771 83.8311 34.1771ZM72.5 25.7863C69.6238 25.7863 67.2929 27.9952 67.2929 31.0238C67.2929 34.0276 69.6238 36.2612 72.5 36.2612C75.3759 36.2612 77.7068 34.0524 77.7068 31.0238C77.7068 27.9952 75.3758 25.7863 72.4997 25.7863H72.5ZM72.5 34.1771C70.9373 34.1771 69.5747 32.8611 69.5747 31.0004C69.5747 29.1139 70.9387 27.8237 72.5 27.8237C74.0624 27.8237 75.4253 29.1139 75.4253 31.0004C75.4253 32.8611 74.0857 34.1771 72.5 34.1771ZM59.0364 27.4V29.6088H64.2924C64.1431 30.8498 63.7228 31.7682 63.1024 32.3893C62.3341 33.1584 61.1439 34.0029 59.0364 34.0029C55.7878 34.0029 53.2844 31.372 53.2844 28.1199C53.2844 24.8679 55.7891 22.1872 59.0364 22.1872C60.7962 22.1872 62.0616 22.8825 63.0036 23.7764L64.5649 22.212C63.2504 20.9465 61.4906 19.9786 59.0364 19.9786C54.5975 19.9786 50.8782 23.6269 50.8782 28.0705C50.8782 32.5143 54.5975 36.1626 59.0364 36.1626C61.4412 36.1626 63.2271 35.3687 64.6649 33.8784C66.1276 32.414 66.574 30.3533 66.574 28.6904C66.574 28.1694 66.5248 27.6976 66.4496 27.3002L59.0364 27.4ZM114.13 29.1125C113.708 27.9457 112.37 25.7863 109.691 25.7863C107.013 25.7863 104.806 27.8965 104.806 31.0238C104.806 33.9524 107.013 36.2612 109.939 36.2612C112.32 36.2612 113.684 34.7968 114.253 33.9524L112.494 32.7611C111.898 33.6303 111.105 34.2005 109.939 34.2005C108.774 34.2005 107.956 33.6795 107.435 32.6116L114.352 29.7078L114.13 29.1125ZM107.088 30.8757C107.039 28.8644 108.651 27.8223 109.79 27.8223C110.708 27.8223 111.452 28.2692 111.724 28.9397L107.088 30.8757ZM101.46 35.9142H103.741V20.5736H101.46V35.9142ZM97.7413 26.9531H97.6672C97.1467 26.3321 96.1799 25.7863 94.9392 25.7863C92.3357 25.7863 89.9803 28.0952 89.9803 31.0238C89.9803 33.9524 92.3604 36.2368 94.9392 36.2368C96.1786 36.2368 97.1456 35.6907 97.6672 35.045H97.7413V35.7897C97.7413 37.801 96.6743 38.8675 94.9639 38.8675C93.5753 38.8675 92.7071 37.8501 92.3604 37.0057L90.3774 37.8501C90.947 39.2404 92.4603 40.9529 94.9639 40.9529C97.6414 40.9529 99.8982 39.364 99.8982 35.5168V26.1087H97.7413V26.9531ZM95.1377 34.1771C93.5753 34.1771 92.2618 32.8611 92.2618 31.0251C92.2618 29.1892 93.5764 27.8481 95.1377 27.8481C96.6757 27.8481 97.915 29.1892 97.915 31.0251C97.9139 32.8364 96.6743 34.1771 95.1377 34.1771ZM124.767 20.5739H119.312V35.9142H121.594V30.1051H124.767C127.296 30.1051 129.775 28.2678 129.775 25.3395C129.775 22.4109 127.296 20.5736 124.767 20.5736V20.5739ZM124.841 27.9718H121.617V22.7083H124.841C126.527 22.7083 127.519 24.1232 127.519 25.3392C127.495 26.5308 126.528 27.9718 124.841 27.9718ZM138.876 25.7616C137.239 25.7616 135.528 26.4816 134.834 28.1199L136.843 28.9644C137.29 28.1199 138.083 27.8471 138.926 27.8471C140.116 27.8471 141.306 28.5668 141.331 29.8322V29.9817C140.909 29.7336 140.042 29.3854 138.951 29.3854C136.769 29.3854 134.561 30.6017 134.561 32.8364C134.561 34.8968 136.347 36.212 138.331 36.212C139.868 36.212 140.711 35.5168 141.231 34.6982H141.305V35.8897H143.511V30.0062C143.487 27.301 141.479 25.7613 138.876 25.7613V25.7616ZM138.603 34.1524C137.859 34.1524 136.817 33.7795 136.817 32.8622C136.817 31.6707 138.106 31.2238 139.222 31.2238C140.214 31.2238 140.685 31.4472 141.305 31.7449C141.131 33.1598 139.917 34.1524 138.603 34.1524ZM151.471 26.11L148.868 32.7374H148.793L146.092 26.1098H143.637L147.703 35.3931L145.397 40.5814H147.777L154 26.1098H151.471L151.471 26.11ZM131.041 35.9142H133.322V20.5736H131.041V35.9142Z" fill="#6E7073"/>
</g>
<defs>
<filter id="filter0_d" x="0" y="0" width="173" height="66" filterUnits="userSpaceOnUse" color-interpolation-filters="sRGB">
<feFlood flood-opacity="0" result="BackgroundImageFix"/>
<feColorMatrix in="SourceAlpha" type="matrix" values="0 0 0 0 0 0 0 0 0 0 0 0 0 0 0 0 0 0 127 0"/>
<feOffset dx="2" dy="4"/>
<feGaussianBlur stdDeviation="8.5"/>
<feColorMatrix type="matrix" values="0 0 0 0 0 0 0 0 0 0 0 0 0 0 0 0 0 0 0.12 0"/>
<feBlend mode="normal" in2="BackgroundImageFix" result="effect1_dropShadow"/>
<feBlend mode="normal" in="SourceGraphic" in2="effect1_dropShadow" result="shape"/>
</filter>
</defs>
</svg>