<svg width="22" height="24" viewBox="0 0 22 24" fill="none" xmlns="http://www.w3.org/2000/svg">
<path d="M8.4 18V14.4H0V9.6H8.4V6L14.4 12L8.4 18ZM8.4 0H19.2C19.8365 0 20.447 0.252856 20.8971 0.702944C21.3471 1.15303 21.6 1.76348 21.6 2.4V21.6C21.6 22.2365 21.3471 22.847 20.8971 23.2971C20.447 23.7471 19.8365 24 19.2 24H8.4C7.76348 24 7.15303 23.7471 6.70294 23.2971C6.25286 22.847 6 22.2365 6 21.6V19.2H8.4V21.6H19.2V2.4H8.4V4.8H6V2.4C6 1.76348 6.25286 1.15303 6.70294 0.702944C7.15303 0.252856 7.76348 0 8.4 0Z" fill="white"/>
</svg>
