<svg width="24" height="24" viewBox="0 0 24 24" fill="none" xmlns="http://www.w3.org/2000/svg">
<path d="M10.263 20.526C12.5401 20.5255 14.7515 19.7632 16.5452 18.3605L22.1847 24L23.9987 22.186L18.3592 16.5465C19.7627 14.7526 20.5254 12.5407 20.526 10.263C20.526 4.60423 15.9217 0 10.263 0C4.60423 0 0 4.60423 0 10.263C0 15.9217 4.60423 20.526 10.263 20.526ZM10.263 2.56575C14.508 2.56575 17.9602 6.01796 17.9602 10.263C17.9602 14.508 14.508 17.9602 10.263 17.9602C6.01796 17.9602 2.56575 14.508 2.56575 10.263C2.56575 6.01796 6.01796 2.56575 10.263 2.56575Z" fill="white"/>
</svg>
